Coordinates
version=1
nRows=21
nColumns=22
inDegrees=yes

Units are S.I. units (second, meters, Newtons, ...)
If the header above contains a line with 'inDegrees', this indicates whether rotational values are in degrees (yes) or radians (no).

endheader
time	pelvis_tilt	pelvis_list	pelvis_rotation	pelvis_tx	pelvis_ty	pelvis_tz	hip_flexion_r	hip_adduction_r	hip_rotation_r	knee_angle_r	ankle_angle_r	subtalar_angle_r	hip_flexion_l	hip_adduction_l	hip_rotation_l	knee_angle_l	ankle_angle_l	subtalar_angle_l	lumbar_extension	lumbar_bending	lumbar_rotation
      1.43000000	     -3.83512013	     -4.09822113	     -0.96418845	     -1.68701063	      1.00639019	      0.00532907	      4.78913545	      3.97889617	     -7.87635787	    -16.09715407	     11.73191079	     -0.14043254	      4.62157350	    -12.20587832	    -11.36048553	    -15.91107898	     10.84412812	      4.98860718	     -3.60376425	      3.49631577	     -2.29239637
      1.44000000	     -3.86483958	     -4.18940234	     -0.81427506	     -1.68672791	      1.00608710	      0.00736892	      4.79090992	      4.20747793	     -7.95940993	    -16.10305926	     11.79027064	     -0.24976309	      5.50325328	    -12.56256321	    -10.94575491	    -17.42750975	     10.90163500	      5.15149778	     -3.66211176	      3.61047595	     -2.30905961
      1.45000000	     -3.90399616	     -4.25449784	     -0.65967631	     -1.68646122	      1.00577386	      0.00944206	      4.80259376	      4.41100856	     -8.04482313	    -16.10347102	     11.85769540	     -0.37671495	      6.52027336	    -12.90064557	    -10.52999489	    -19.15313253	     10.85194491	      5.30643529	     -3.71581852	      3.68793104	     -2.32950796
      1.46000000	     -3.90482870	     -4.31158697	     -0.49878942	     -1.68619242	      1.00552325	      0.01152979	      4.77100047	      4.60628043	     -8.13834185	    -16.09737477	     11.92849296	     -0.49888392	      7.61334791	    -13.23329783	    -10.10424556	    -21.07211050	     10.69684326	      5.39741298	     -3.82374952	      3.75154163	     -2.33901676
      1.47000000	     -3.87612779	     -4.35160087	     -0.33269812	     -1.68591077	      1.00532842	      0.01363145	      4.70460411	      4.78516249	     -8.23367544	    -16.08382005	     11.99720120	     -0.62309911	      8.78765632	    -13.54951069	     -9.69108498	    -23.17427194	     10.41131414	      5.41279541	     -3.97362190	      3.79130955	     -2.33544041
      1.48000000	     -3.79582414	     -4.38681775	     -0.16273680	     -1.68560101	      1.00522485	      0.01575485	      4.57906346	      4.96252518	     -8.32490522	    -16.06198716	     12.05836211	     -0.73829539	     10.00206035	    -13.85830020	     -9.28647341	    -25.42442627	      9.99374999	      5.32492901	     -4.19224641	      3.81643875	     -2.31839649
      1.49000000	     -3.67588709	     -4.41493500	      0.01176837	     -1.68523185	      1.00519382	      0.01787184	      4.40216317	      5.13415388	     -8.41403449	    -16.02705295	     12.12019902	     -0.85431205	     11.25585717	    -14.15633467	     -8.91332594	    -27.79580482	      9.43726802	      5.11182395	     -4.45897211	      3.83249582	     -2.27643577
      1.50000000	     -3.51361111	     -4.44314874	      0.18512036	     -1.68479646	      1.00523979	      0.02000051	      4.17057219	      5.31086156	     -8.49281263	    -15.97764026	     12.17042846	     -0.96658231	     12.51932112	    -14.44707411	     -8.56891991	    -30.23527968	      8.77591828	      4.75217167	     -4.77704754	      3.84215916	     -2.21244399
      1.51000000	     -3.31753981	     -4.47581464	      0.35536587	     -1.68428274	      1.00534499	      0.02212630	      3.89099348	      5.49631363	     -8.55951227	    -15.91073443	     12.21009330	     -1.07677032	     13.78047885	    -14.73278874	     -8.25671486	    -32.69857824	      8.05045739	      4.23722185	     -5.13379281	      3.85267374	     -2.12105272
      1.52000000	     -3.09894074	     -4.51217822	      0.51396144	     -1.68367183	      1.00549297	      0.02423635	      3.57529798	      5.68852682	     -8.61410091	    -15.82843227	     12.24650635	     -1.18610161	     15.02129596	    -15.00718399	     -7.98027636	    -35.12914336	      7.32254084	      3.58586957	     -5.51234417	      3.86436326	     -1.99125595
      1.53000000	     -2.88392613	     -4.53537242	      0.63971128	     -1.68300147	      1.00563211	      0.02633466	      3.27349564	      5.86347712	     -8.66685731	    -15.77243677	     12.31486304	     -1.31860570	     16.23955749	    -15.24577502	     -7.74300771	    -37.47150303	      6.67413944	      2.74667203	     -5.88918457	      3.85588161	     -1.78889183
      1.54000000	     -2.64690077	     -4.57503802	      0.76482382	     -1.68219777	      1.00583098	      0.02835414	      2.90917321	      6.05981779	     -8.67334475	    -15.65168235	     12.30735788	     -1.39958006	     17.39949964	    -15.47351427	     -7.52894271	    -39.68093223	      6.16881932	      2.03043372	     -6.27900304	      3.87575644	     -1.60484624
      1.55000000	     -2.44665901	     -4.58704605	      0.84672786	     -1.68130909	      1.00598468	      0.03032708	      2.59480708	      6.21823985	     -8.67609077	    -15.56358903	     12.34667053	     -1.49695366	     18.52636172	    -15.63484675	     -7.35779265	    -41.70269560	      5.84856745	      1.22792443	     -6.62305899	      3.86091617	     -1.34781921
      1.56000000	     -2.26417073	     -4.54023757	      0.88665783	     -1.68029562	      1.00615037	      0.03221954	      2.30305128	      6.30310241	     -8.66029090	    -15.50237654	     12.41852195	     -1.59490363	     19.57337922	    -15.69711456	     -7.26740072	    -43.48628315	      5.70271710	      0.43113177	     -6.93861592	      3.78371535	     -1.06153961
      1.57000000	     -2.09292257	     -4.49463766	      0.90223386	     -1.67911011	      1.00634535	      0.03401282	      1.99492755	      6.38411963	     -8.61091403	    -15.40447412	     12.44614867	     -1.63926252	     20.54368343	    -15.71724885	     -7.21579417	    -45.02519861	      5.76760152	     -0.15746012	     -7.22552608	      3.71663137	     -0.75000347
      1.58000000	     -1.95805269	     -4.36731931	      0.87955528	     -1.67778603	      1.00654286	      0.03569881	      1.74072392	      6.36248682	     -8.54085548	    -15.36077111	     12.51804192	     -1.68399412	     21.43811807	    -15.60837696	     -7.25759721	    -46.28143111	      5.91562727	     -0.72606136	     -7.45930227	      3.56332393	     -0.43330211
      1.59000000	     -1.83581785	     -4.18936296	      0.83464441	     -1.67627802	      1.00678186	      0.03726730	      1.48966609	      6.27475674	     -8.46172562	    -15.32202579	     12.60070267	     -1.70260856	     22.23831997	    -15.40513468	     -7.37759566	    -47.25464473	      6.12855363	     -1.11813023	     -7.66070372	      3.35879250	     -0.11150660
      1.60000000	     -1.73455528	     -3.97388277	      0.78717101	     -1.67460882	      1.00703067	      0.03869812	      1.25417118	      6.13701480	     -8.36908111	    -15.29084687	     12.68886137	     -1.70284407	     22.97094216	    -15.11299460	     -7.53970057	    -47.95840007	      6.35701171	     -1.36180452	     -7.81981989	      3.12136061	      0.18465770
      1.61000000	     -1.65705888	     -3.74158231	      0.75481574	     -1.67277849	      1.00726776	      0.03999078	      1.02845127	      5.97504352	     -8.26348229	    -15.24782432	     12.76571722	     -1.69151944	     23.65258177	    -14.75622401	     -7.72906574	    -48.40462592	      6.59464068	     -1.47384399	     -7.93384346	      2.87423979	      0.43192892
      1.62000000	     -1.61479125	     -3.48511379	      0.71908285	     -1.67080988	      1.00745982	      0.04116990	      0.84646118	      5.77544877	     -8.16595943	    -15.23435273	     12.86329675	     -1.66593140	     24.29704698	    -14.33537493	     -7.95297085	    -48.60919543	      6.75423203	     -1.50853433	     -7.99055709	      2.60272224	      0.67573309
      1.63000000	     -1.58503751	     -3.22101264	      0.69204222	     -1.66871711	      1.00761867	      0.04225219	      0.68576395	      5.55775740	     -8.10062974	    -15.25058695	     12.99732899	     -1.61356601	     24.89172587	    -13.86998568	     -8.18543297	    -48.58844300	      6.83245702	     -1.42797607	     -8.02143394	      2.32664793	      0.91213266
